<svg width="231" height="62" viewBox="0 0 231 62" fill="none" xmlns="http://www.w3.org/2000/svg">
<path d="M3.12 47V12.44H9.264V47H3.12Z" fill="white"/>
<path d="M40.4002 16.1699C37.3835 16.1699 34.6835 17.6366 33.0002 19.8866C32.1404 18.7346 31.0239 17.7989 29.7394 17.1537C28.4549 16.5086 27.0376 16.1717 25.6002 16.1699C20.4835 16.1699 16.3335 20.3366 16.3335 25.4866C16.3335 27.4699 16.6502 29.3033 17.2002 31.0033C19.8335 39.3366 27.9502 44.3199 31.9668 45.6866C32.5335 45.8866 33.4668 45.8866 34.0335 45.6866C38.0502 44.3199 46.1668 39.3366 48.8002 31.0033C49.3502 29.3033 49.6668 27.4699 49.6668 25.4866C49.6668 20.3366 45.5168 16.1699 40.4002 16.1699Z" fill="url(#paint0_linear_1098_9357)"/>
<path d="M36.4282 31V33.5714C36.4282 34.5186 35.6611 35.2857 34.7139 35.2857H31.2854C30.3382 35.2857 29.5711 34.5186 29.5711 33.5714V31C29.5711 30.7643 29.7639 30.5714 29.9997 30.5714H30.8439C31.0797 30.5714 31.2725 30.7643 31.2725 31V32.3457C31.273 32.5733 31.3633 32.7915 31.5238 32.9528C31.6843 33.1142 31.9021 33.2056 32.1297 33.2071C32.2925 33.2071 32.4554 33.16 32.5968 33.0657L33.0039 32.8L33.3811 33.0529C33.6425 33.2286 33.9768 33.25 34.2554 33.1C34.5382 32.95 34.7139 32.6629 34.7139 32.3414V31C34.7139 30.7643 34.9068 30.5714 35.1425 30.5714H35.9997C36.2354 30.5714 36.4282 30.7643 36.4282 31ZM37.0711 28.8571V29.2857C37.0711 29.7571 36.8439 30.1429 36.2139 30.1429H29.7854C29.1297 30.1429 28.9282 29.7571 28.9282 29.2857V28.8571C28.9282 28.3857 29.1297 28 29.7854 28H36.2139C36.8439 28 37.0711 28.3857 37.0711 28.8571Z" fill="white"/>
<path d="M32.845 28.0004H30.4793C30.4088 27.924 30.3708 27.8232 30.3732 27.7192C30.3756 27.6153 30.4182 27.5164 30.4921 27.4433L31.1007 26.8347C31.1777 26.7585 31.2817 26.7158 31.39 26.7158C31.4983 26.7158 31.6022 26.7585 31.6793 26.8347L32.845 28.0004ZM35.5163 28.0004H33.1506L34.3163 26.8347C34.3933 26.7585 34.4972 26.7158 34.6056 26.7158C34.7139 26.7158 34.8178 26.7585 34.8948 26.8347L35.5034 27.4433C35.6577 27.5976 35.662 27.8418 35.5163 28.0004ZM33.8444 30.5714C34.0801 30.5714 34.273 30.7643 34.273 31V32.3414C34.273 32.6843 33.8916 32.89 33.6087 32.6971L33.223 32.44C33.153 32.3939 33.0711 32.3693 32.9873 32.3693C32.9035 32.3693 32.8215 32.3939 32.7516 32.44L32.3487 32.7057C32.0658 32.8943 31.6887 32.6886 31.6887 32.35V31C31.6887 30.7643 31.8816 30.5714 32.1173 30.5714H33.8444Z" fill="white"/>
<path d="M59.096 57.56L64.616 45.416H63.176L53.912 23.192H60.584L67.256 39.944L74.216 23.192H80.744L65.624 57.56H59.096ZM91.0936 47.576C89.0456 47.576 87.3656 47.256 86.0536 46.616C84.7416 45.944 83.7656 45.064 83.1256 43.976C82.4856 42.888 82.1656 41.688 82.1656 40.376C82.1656 38.168 83.0296 36.376 84.7576 35C86.4856 33.624 89.0776 32.936 92.5336 32.936H98.5816V32.36C98.5816 30.728 98.1176 29.528 97.1896 28.76C96.2616 27.992 95.1096 27.608 93.7336 27.608C92.4856 27.608 91.3976 27.912 90.4696 28.52C89.5416 29.096 88.9656 29.96 88.7416 31.112H82.7416C82.9016 29.384 83.4776 27.88 84.4696 26.6C85.4936 25.32 86.8056 24.344 88.4056 23.672C90.0056 22.968 91.7976 22.616 93.7816 22.616C97.1736 22.616 99.8456 23.464 101.798 25.16C103.75 26.856 104.726 29.256 104.726 32.36V47H99.4936L98.9176 43.16C98.2136 44.44 97.2216 45.496 95.9416 46.328C94.6936 47.16 93.0776 47.576 91.0936 47.576ZM92.4856 42.776C94.2456 42.776 95.6056 42.2 96.5656 41.048C97.5576 39.896 98.1816 38.472 98.4376 36.776H93.2056C91.5736 36.776 90.4056 37.08 89.7016 37.688C88.9976 38.264 88.6456 38.984 88.6456 39.848C88.6456 40.776 88.9976 41.496 89.7016 42.008C90.4056 42.52 91.3336 42.776 92.4856 42.776ZM110.589 47V12.44H116.733V47H110.589ZM137.123 47.576C135.331 47.576 133.763 47.24 132.419 46.568C131.075 45.896 129.987 44.952 129.155 43.736L128.483 47H123.011V12.44H129.155V26.6C129.923 25.544 130.931 24.616 132.179 23.816C133.459 23.016 135.107 22.616 137.123 22.616C139.363 22.616 141.363 23.16 143.123 24.248C144.883 25.336 146.275 26.824 147.299 28.712C148.323 30.6 148.835 32.744 148.835 35.144C148.835 37.544 148.323 39.688 147.299 41.576C146.275 43.432 144.883 44.904 143.123 45.992C141.363 47.048 139.363 47.576 137.123 47.576ZM135.827 42.2C137.779 42.2 139.395 41.544 140.675 40.232C141.955 38.92 142.595 37.224 142.595 35.144C142.595 33.064 141.955 31.352 140.675 30.008C139.395 28.664 137.779 27.992 135.827 27.992C133.843 27.992 132.211 28.664 130.931 30.008C129.683 31.32 129.059 33.016 129.059 35.096C129.059 37.176 129.683 38.888 130.931 40.232C132.211 41.544 133.843 42.2 135.827 42.2ZM162.531 47.576C160.483 47.576 158.803 47.256 157.491 46.616C156.179 45.944 155.203 45.064 154.563 43.976C153.923 42.888 153.603 41.688 153.603 40.376C153.603 38.168 154.467 36.376 156.195 35C157.923 33.624 160.515 32.936 163.971 32.936H170.019V32.36C170.019 30.728 169.555 29.528 168.627 28.76C167.699 27.992 166.547 27.608 165.171 27.608C163.923 27.608 162.835 27.912 161.907 28.52C160.979 29.096 160.403 29.96 160.179 31.112H154.179C154.339 29.384 154.915 27.88 155.907 26.6C156.931 25.32 158.243 24.344 159.843 23.672C161.443 22.968 163.235 22.616 165.219 22.616C168.611 22.616 171.283 23.464 173.235 25.16C175.187 26.856 176.163 29.256 176.163 32.36V47H170.931L170.355 43.16C169.651 44.44 168.659 45.496 167.379 46.328C166.131 47.16 164.515 47.576 162.531 47.576ZM163.923 42.776C165.683 42.776 167.043 42.2 168.003 41.048C168.995 39.896 169.619 38.472 169.875 36.776H164.643C163.011 36.776 161.843 37.08 161.139 37.688C160.435 38.264 160.083 38.984 160.083 39.848C160.083 40.776 160.435 41.496 161.139 42.008C161.843 42.52 162.771 42.776 163.923 42.776ZM180.49 47V42.056L192.634 28.28H180.634V23.192H199.642V28.136L187.306 41.912H199.882V47H180.49ZM216.563 47.576C214.163 47.576 212.035 47.064 210.179 46.04C208.323 45.016 206.867 43.576 205.811 41.72C204.755 39.864 204.227 37.72 204.227 35.288C204.227 32.824 204.739 30.632 205.763 28.712C206.819 26.792 208.259 25.304 210.083 24.248C211.939 23.16 214.115 22.616 216.611 22.616C218.947 22.616 221.011 23.128 222.803 24.152C224.595 25.176 225.987 26.584 226.979 28.376C228.003 30.136 228.515 32.104 228.515 34.28C228.515 34.632 228.499 35 228.467 35.384C228.467 35.768 228.451 36.168 228.419 36.584H210.323C210.451 38.44 211.091 39.896 212.243 40.952C213.427 42.008 214.851 42.536 216.515 42.536C217.763 42.536 218.803 42.264 219.635 41.72C220.499 41.144 221.139 40.408 221.555 39.512H227.795C227.347 41.016 226.595 42.392 225.539 43.64C224.515 44.856 223.235 45.816 221.699 46.52C220.195 47.224 218.483 47.576 216.563 47.576ZM216.611 27.608C215.107 27.608 213.779 28.04 212.627 28.904C211.475 29.736 210.739 31.016 210.419 32.744H222.275C222.179 31.176 221.603 29.928 220.547 29C219.491 28.072 218.179 27.608 216.611 27.608Z" fill="white"/>
<defs>
<linearGradient id="paint0_linear_1098_9357" x1="18.3335" y1="16.3333" x2="35.3335" y2="38.5" gradientUnits="userSpaceOnUse">
<stop stop-color="#175CE1" stop-opacity="0.71"/>
<stop offset="1" stop-color="#A75FD2" stop-opacity="0.94"/>
</linearGradient>
</defs>
</svg>
